<?xml version="1.0" encoding="UTF-8" standalone="no"?>
<!-- Created with Inkscape (http://www.inkscape.org/) -->

<svg
   xmlns:dc="http://purl.org/dc/elements/1.1/"
   xmlns:cc="http://creativecommons.org/ns#"
   xmlns:rdf="http://www.w3.org/1999/02/22-rdf-syntax-ns#"
   xmlns:svg="http://www.w3.org/2000/svg"
   xmlns="http://www.w3.org/2000/svg"
   xmlns:sodipodi="http://sodipodi.sourceforge.net/DTD/sodipodi-0.dtd"
   xmlns:inkscape="http://www.inkscape.org/namespaces/inkscape"
   width="500"
   height="500"
   viewBox="0 0 132.29166 132.29167"
   version="1.1"
   id="svg8"
   inkscape:version="0.92.2 5c3e80d, 2017-08-06"
   sodipodi:docname="edquant_logo.svg"
   inkscape:export-filename="/Users/b.skinner/Desktop/edquant_logo.png"
   inkscape:export-xdpi="300"
   inkscape:export-ydpi="300">
  <defs
     id="defs2" />
  <sodipodi:namedview
     id="base"
     pagecolor="#ffffff"
     bordercolor="#666666"
     borderopacity="1.0"
     inkscape:pageopacity="0.0"
     inkscape:pageshadow="2"
     inkscape:zoom="1.979899"
     inkscape:cx="302.61969"
     inkscape:cy="248.79911"
     inkscape:document-units="px"
     inkscape:current-layer="layer1"
     showgrid="false"
     units="px"
     inkscape:showpageshadow="false"
     inkscape:window-width="2560"
     inkscape:window-height="1395"
     inkscape:window-x="0"
     inkscape:window-y="0"
     inkscape:window-maximized="0"
     showguides="false"
     inkscape:guide-bbox="true">
    <inkscape:grid
       type="xygrid"
       id="grid815" />
    <sodipodi:guide
       position="66.145832,132.29166"
       orientation="1,0"
       id="guide4759"
       inkscape:locked="false" />
    <sodipodi:guide
       position="0,66.145835"
       orientation="0,1"
       id="guide4761"
       inkscape:locked="false" />
  </sodipodi:namedview>
  <metadata
     id="metadata5">
    <rdf:RDF>
      <cc:Work
         rdf:about="">
        <dc:format>image/svg+xml</dc:format>
        <dc:type
           rdf:resource="http://purl.org/dc/dcmitype/StillImage" />
        <dc:title></dc:title>
      </cc:Work>
    </rdf:RDF>
  </metadata>
  <g
     inkscape:label="Layer 1"
     inkscape:groupmode="layer"
     id="layer1"
     transform="translate(0,-164.70832)">
    <rect
       style="fill:#282828;fill-opacity:1;stroke:#3f3f3f;stroke-width:0.26405519;stroke-opacity:1"
       id="rect4624"
       width="132.02762"
       height="132.02762"
       x="-0.00026406025"
       y="164.97264" />
    <text
       xml:space="preserve"
       style="font-style:normal;font-weight:normal;font-size:6.3499999px;line-height:1.25;font-family:sans-serif;letter-spacing:0px;word-spacing:0px;fill:#000000;fill-opacity:1;stroke:none;stroke-width:0.26458332"
       x="-66.817383"
       y="213.61189"
       id="text4666"><tspan
         sodipodi:role="line"
         id="tspan4664"
         x="-66.817383"
         y="219.23015"
         style="stroke-width:0.26458332"></tspan></text>
    <g
       id="g4757"
       transform="translate(7.2015996e-7,1.0583337)">
      <path
         style="fill:#7f9f7f;fill-opacity:1;stroke:#7f9f7f;stroke-width:0.19135608;stroke-opacity:1"
         inkscape:connector-curvature="0"
         d="m 112.04601,191.2367 v 3.0617 a 1.5308487,1.5308487 0 0 1 -1.53081,1.53085 h -4.59255 v 2.29628 c 0,1.2681 -1.02817,2.29628 -2.29629,2.29628 H 28.614788 c -1.268111,0 -2.296262,-1.02818 -2.296262,-2.29628 v -2.29628 h -4.592552 a 1.5308487,1.5308487 0 0 1 -1.530837,-1.53085 v -3.0617 a 1.5308487,1.5308487 0 0 1 0.945478,-1.41449 L 65.53523,172.98287 a 1.5300831,1.5300831 0 0 1 1.170716,0 l 44.394604,16.83934 a 1.5308487,1.5308487 0 0 1 0.94546,1.41449 z m -4.59252,58.17226 H 24.787674 c -2.536423,0 -4.592537,2.05613 -4.592537,4.59254 v 3.06171 a 1.5308487,1.5308487 0 0 0 1.530837,1.53083 H 110.5152 a 1.5308487,1.5308487 0 0 0 1.53081,-1.53083 v -3.06171 c 0,-2.53641 -2.05609,-4.59254 -4.59252,-4.59254 z M 35.503615,203.4835 v 36.74038 h -6.888827 c -1.268111,0 -2.296262,1.02817 -2.296262,2.29626 v 3.82711 h 79.604124 v -3.82711 c 0,-1.26809 -1.02817,-2.29626 -2.29629,-2.29626 H 96.737561 V 203.4835 H 84.49077 v 36.74038 H 72.243976 V 203.4835 H 59.997198 v 36.74038 H 47.750392 V 203.4835 Z"
         id="path4613" />
      <g
         transform="translate(0,-2.1166667)"
         id="g4747">
        <flowRoot
           xml:space="preserve"
           id="flowRoot4656"
           style="font-style:normal;font-weight:normal;font-size:24px;line-height:1.25;font-family:sans-serif;letter-spacing:0px;word-spacing:0px;fill:#7f9f7f;fill-opacity:1;stroke:none"
           transform="matrix(0.63731089,0,0,0.76887674,203.59924,130.37949)"><flowRegion
             id="flowRegion4658"
             style="fill:#7f9f7f;fill-opacity:1"><rect
               id="rect4660"
               width="223.24371"
               height="95.964493"
               x="-282.84271"
               y="172.20551"
               style="fill:#7f9f7f;fill-opacity:1" /></flowRegion><flowPara
             id="flowPara4662"
             style="font-style:normal;font-variant:normal;font-weight:normal;font-stretch:normal;font-size:32px;font-family:Courier;-inkscape-font-specification:'Courier, Normal';font-variant-ligatures:normal;font-variant-caps:normal;font-variant-numeric:normal;font-feature-settings:normal;text-align:start;word-spacing:0.38205713px;writing-mode:lr-tb;text-anchor:start;fill:#7f9f7f;fill-opacity:1">edquant</flowPara></flowRoot>        <path
           style="fill:#7f9f7f;fill-opacity:1;stroke:#7f9f7f;stroke-width:0.04433983;stroke-opacity:1"
           inkscape:connector-curvature="0"
           d="m 19.969258,279.73801 -8.149845,9.11122 c -0.39306,0.43943 -1.030312,0.43943 -1.423327,0 l -0.9505911,-1.06269 c -0.392389,-0.43867 -0.3931416,-1.14963 -0.00184,-1.58935 l 6.4589661,-7.25482 -6.4589294,-7.25479 c -0.3914675,-0.43968 -0.3907114,-1.15067 0.00184,-1.58935 l 0.9505484,-1.06266 c 0.39306,-0.43943 1.03031,-0.43943 1.423326,0 l 8.149846,9.11122 c 0.393063,0.43937 0.393063,1.15179 0,1.59122 z"
           id="path4668"
           sodipodi:nodetypes="ccccccccccccc" />
        <path
           style="fill:#7f9f7f;fill-opacity:1;stroke:#7f9f7f;stroke-width:0.03772203;stroke-opacity:1"
           inkscape:connector-curvature="0"
           d="m 122.8801,288.07056 v -1.48107 c 0,-0.61349 -0.33035,-1.11081 -0.73786,-1.11081 h -9.34621 c -0.40752,0 -0.73786,0.49732 -0.73786,1.11081 v 1.48107 c 0,0.61349 0.33034,1.11082 0.73786,1.11082 h 9.34621 c 0.40751,0 0.73786,-0.49733 0.73786,-1.11082 z"
           id="path4670"
           sodipodi:nodetypes="sssssssss" />
      </g>
    </g>
  </g>
</svg>
